<?xml version="1.0" encoding="UTF-8" standalone="no"?>
<svg width="22px" height="21px" viewBox="0 0 22 21" version="1.1" xmlns="http://www.w3.org/2000/svg" xmlns:xlink="http://www.w3.org/1999/xlink">
    <!-- Generator: Sketch 3.8.1 (29687) - http://www.bohemiancoding.com/sketch -->
    <title>Slice 1</title>
    <desc>Created with Sketch.</desc>
    <defs></defs>
    <g id="Page-1" stroke="none" stroke-width="1" fill="none" fill-rule="evenodd">
        <path d="M0.14,4 C0.062,4 0,4.058 0,4.129 L0,19.871 C0,19.942 0.063,20 0.14,20 L21.859,20 C21.937,20 21.999,19.942 21.999,19.871 L21.999,4.129 C21.999,4.058 21.936,4 21.859,4 L0.14,4 L0.14,4 Z M1,5 L1,19 L21,19 L21,5 L1,5 L1,5 Z M8.311,7.966 L11.568,13.59 C11.608,13.659 11.695,13.677 11.759,13.632 L14.522,11.689 C14.651,11.598 14.823,11.63 14.91,11.765 L19.931,17.624 C20.016,17.757 19.955,17.865 19.805,17.865 L2.149,17.865 C1.994,17.865 1.927,17.752 2,17.611 L8.037,7.97 C8.11,7.83 8.235,7.831 8.313,7.966 L8.311,7.966 Z M17.5,9 C18.328,9 19,8.328 19,7.5 C19,6.672 18.328,6 17.5,6 C16.672,6 16,6.672 16,7.5 C16,8.328 16.672,9 17.5,9 L17.5,9 Z M2,1.77635684e-15 L2,1 L20,1 L20,1.77635684e-15 L2,1.77635684e-15 L2,1.77635684e-15 Z M1,2 L1,3 L21,3 L21,2 L1,2 L1,2 Z" id="Shape" fill="#000000"></path>
    </g>
</svg>