<?xml version="1.0" encoding="UTF-8" standalone="no"?>
<svg width="22px" height="18px" viewBox="0 0 22 18" version="1.1" xmlns="http://www.w3.org/2000/svg" xmlns:xlink="http://www.w3.org/1999/xlink">
    <!-- Generator: Sketch 3.8.1 (29687) - http://www.bohemiancoding.com/sketch -->
    <title>Slice 1</title>
    <desc>Created with Sketch.</desc>
    <defs></defs>
    <g id="Page-1" stroke="none" stroke-width="1" fill="none" fill-rule="evenodd">
        <path d="M0.14,4.4408921e-16 C0.062,4.4408921e-16 0,0.065 0,0.145 L0,17.855 C0,17.935 0.063,18 0.14,18 L21.859,18 C21.937,18 21.999,17.935 21.999,17.855 L21.999,0.145 C21.999,0.065 21.936,0 21.859,0 L0.14,0 L0.14,4.4408921e-16 Z M1,1 L1,17 L21,17 L21,1 L1,1 L1,1 Z M8.311,3.966 L11.568,9.59 C11.608,9.659 11.695,9.677 11.759,9.632 L14.522,7.689 C14.651,7.598 14.823,7.63 14.91,7.765 L19.931,15.624 C20.016,15.757 19.955,15.865 19.805,15.865 L2.149,15.865 C1.994,15.865 1.927,15.752 2,15.611 L7.716,4.59 L8.038,3.97 C8.111,3.83 8.236,3.831 8.314,3.966 L8.311,3.966 Z M17.5,6 C18.328,6 19,5.328 19,4.5 C19,3.672 18.328,3 17.5,3 C16.672,3 16,3.672 16,4.5 C16,5.328 16.672,6 17.5,6 L17.5,6 Z" id="Shape" fill="#000000"></path>
    </g>
</svg>