<?xml version="1.0" encoding="UTF-8" standalone="no"?>
<svg width="39px" height="48px" viewBox="0 0 39 48" version="1.1" xmlns="http://www.w3.org/2000/svg" xmlns:xlink="http://www.w3.org/1999/xlink">
    <!-- Generator: Sketch 3.8.1 (29687) - http://www.bohemiancoding.com/sketch -->
    <title>Slice 1</title>
    <desc>Created with Sketch.</desc>
    <defs></defs>
    <g id="Page-1" stroke="none" stroke-width="1" fill="none" fill-rule="evenodd">
        <path d="M30.618,37.543 C26.797,35.883 25.401,33.301 24.975,31.074 C27.727,28.859 29.918,25.318 31.123,21.501 C32.362,19.922 33.083,18.275 33.083,16.881 C33.083,15.926 32.736,15.235 32.128,14.723 C31.926,6.618 26.187,0.11 19.091,0.01 C19.035,0.009 18.981,3.55271368e-15 18.926,3.55271368e-15 C18.904,3.55271368e-15 18.883,0.004 18.861,0.004 C11.809,0.043 6.078,6.414 5.736,14.413 C4.852,14.941 4.342,15.718 4.342,16.882 C4.342,18.523 5.334,20.512 7.005,22.33 C8.192,25.657 10.123,28.71 12.505,30.768 C12.151,33.06 10.806,35.807 6.808,37.544 C4.649,38.482 0.703,39.325 -1,40.193 C3.362,44.962 11.624,47.962 18.589,47.998 L18.688,48.001 C18.696,47.999 18.705,48 18.713,48 C25.727,48 34.038,44.99 38.426,40.192 C36.723,39.324 32.776,38.481 30.618,37.543 L30.618,37.543 Z" id="Shape" fill="#FFD530"></path>
    </g>
</svg>