<svg viewBox="0 0 26 14">
    <path d="M13,0 C4,0 0,7 0,7 C0,7 4,14 13,14 C22,14 26,7 26,7 C26,7 22,0 13,0 L13,0 Z M13,1 C5,1 1.2,7 1.2,7 C1.2,7 5,13 13,13 C21,13 24.8,7 24.8,7 C24.8,7 21,1 13,1 L13,1 Z M13,11 C15.209,11 17,9.209 17,7 C17,4.791 15.209,3 13,3 C10.791,3 9,4.791 9,7 C9,9.209 10.791,11 13,11 L13,11 Z M13,10 C14.657,10 16,8.657 16,7 C16,5.343 14.657,4 13,4 C11.343,4 10,5.343 10,7 C10,8.657 11.343,10 13,10 L13,10 Z M13,8 C13.552,8 14,7.552 14,7 C14,6.448 13.552,6 13,6 C12.448,6 12,6.448 12,7 C12,7.552 12.448,8 13,8 L13,8 Z"/>
</svg>