<svg version="1.1" id="Слой_1" xmlns="http://www.w3.org/2000/svg" xmlns:xlink="http://www.w3.org/1999/xlink" x="0px" y="0px" width="48px" height="48px" viewBox="0 0 48 48" enable-background="new 0 0 48 48" xml:space="preserve">
<path fill="#455A64" d="M42,43V21c0-3.866-3.134-7-7-7H13c-3.866,0-7,3.134-7,7v22H42z"></path>
<rect x="11" y="19" fill="#263238" width="26" height="4"></rect>
<polygon fill="#C5CAE9" points="35,5 31,7 27,5 24,7 20,5 17,7 13,5 13,21 35,21 "></polygon>
<rect x="11" y="26" fill="#CDDC39" width="26" height="6"></rect>
<g>
	<rect x="15" y="12" fill="#3F51B5" width="10" height="2"></rect>
	<rect x="30" y="12" fill="#3F51B5" width="3" height="2"></rect>
	<rect x="30" y="16" fill="#3F51B5" width="3" height="2"></rect>
	<rect x="15" y="16" fill="#3F51B5" width="7" height="2"></rect>
</g>
<path fill="#FF1744" d="M36,40h-3c-0.552,0-1-0.448-1-1v-3c0-0.552,0.448-1,1-1h3c0.552,0,1,0.448,1,1v3C37,39.552,36.552,40,36,40"></path>
<g>
	<path fill="#E0E0E0" d="M15,40h-3c-0.552,0-1-0.448-1-1v-3c0-0.552,0.448-1,1-1h3c0.552,0,1,0.448,1,1v3C16,39.552,15.552,40,15,40
		"></path>
	<path fill="#E0E0E0" d="M22,40h-3c-0.552,0-1-0.448-1-1v-3c0-0.552,0.448-1,1-1h3c0.552,0,1,0.448,1,1v3C23,39.552,22.552,40,22,40
		"></path>
	<path fill="#E0E0E0" d="M29,40h-3c-0.552,0-1-0.448-1-1v-3c0-0.552,0.448-1,1-1h3c0.552,0,1,0.448,1,1v3C30,39.552,29.552,40,29,40
		"></path>
</g>
</svg>