<svg version="1.1" id="Слой_1" xmlns="http://www.w3.org/2000/svg" xmlns:xlink="http://www.w3.org/1999/xlink" x="0px" y="0px" width="48px" height="48px" viewBox="0 0 48 48" enable-background="new 0 0 48 48" xml:space="preserve">
<path fill="#AB47BC" d="M39.989,12c0,0,0.999,23-15.816,32C7.012,35,8.011,12,8.011,12C16.006,12,24,4,24,4S30.995,12,39.989,12z"></path>
<g>
	<path fill="#F3E5F5" d="M22.688,27.46c0-1.13,0.138-2.031,0.414-2.7c0.277-0.67,0.783-1.33,1.521-1.98
		c0.736-0.648,1.227-1.178,1.472-1.586c0.244-0.408,0.365-0.838,0.365-1.291c0-1.365-0.635-2.047-1.904-2.047
		c-0.603,0-1.084,0.184-1.446,0.551c-0.362,0.368-0.552,0.875-0.568,1.521H19c0.016-1.541,0.519-2.748,1.508-3.621
		C21.496,15.437,22.846,15,24.555,15c1.726,0,3.064,0.414,4.018,1.242C29.523,17.069,30,18.236,30,19.746
		c0,0.687-0.154,1.334-0.464,1.943c-0.31,0.61-0.851,1.286-1.624,2.029l-0.988,0.932c-0.619,0.59-0.973,1.279-1.063,2.071
		l-0.049,0.738H22.688z M22.332,31.168c0-0.539,0.186-0.982,0.557-1.334c0.37-0.349,0.844-0.524,1.422-0.524
		s1.052,0.176,1.422,0.524c0.371,0.352,0.557,0.795,0.557,1.334c0,0.529-0.182,0.968-0.544,1.313C25.383,32.826,24.904,33,24.311,33
		s-1.072-0.174-1.436-0.52C22.514,32.136,22.332,31.697,22.332,31.168z"></path>
</g>
</svg>