<?xml version="1.0" encoding="iso-8859-1"?>
<!-- Generator: Adobe Illustrator 19.0.0, SVG Export Plug-In . SVG Version: 6.00 Build 0)  -->
<svg version="1.1" id="Capa_1" xmlns="http://www.w3.org/2000/svg" xmlns:xlink="http://www.w3.org/1999/xlink" x="0px" y="0px"
	 viewBox="0 0 58 58" style="enable-background:new 0 0 58 58;" xml:space="preserve">
<g>
	<g>
		<path d="M32.909,12.571c-2.237,1.292-3.33,3.295-2.542,4.661c0.415,0.718,1.211,1.079,2.199,1.079c0.922,0,2.01-0.315,3.108-0.949
			c2.237-1.292,3.33-3.295,2.542-4.661C37.414,11.313,35.183,11.258,32.909,12.571z M34.675,15.629
			c-1.353,0.783-2.415,0.733-2.565,0.625c-0.043-0.227,0.446-1.169,1.8-1.951c0.94-0.543,1.739-0.686,2.19-0.686
			c0.198,0,0.329,0.028,0.375,0.061C36.517,13.905,36.029,14.848,34.675,15.629z"/>
		<path d="M25.208,12.311c-2.235-1.291-4.518-1.236-5.307,0.129c-0.429,0.743-0.318,1.708,0.303,2.649
			c0.495,0.75,1.29,1.464,2.238,2.011c1.098,0.634,2.187,0.949,3.109,0.949c0.987,0,1.784-0.361,2.198-1.078
			c0.429-0.743,0.318-1.708-0.303-2.649C26.952,13.572,26.156,12.858,25.208,12.311z M23.443,15.368
			c-1.354-0.781-1.843-1.724-1.824-1.909c0.059-0.051,0.217-0.09,0.453-0.09c0.467,0,1.237,0.153,2.137,0.673
			c1.354,0.781,1.843,1.724,1.824,1.909C25.856,16.103,24.797,16.149,23.443,15.368z"/>
		<path d="M28.977,23c10.598,0,18-3.781,18-9.195c0-5.43-7.729-13.805-18-13.805s-18,8.375-18,13.805
			C10.977,19.219,18.379,23,28.977,23z M17.597,6.261C19.506,4.669,23.523,2,28.977,2c8.678,0,16,7.251,16,11.805
			c0,4.169-6.729,7.195-16,7.195s-16-3.026-16-7.195C12.977,11.561,14.791,8.601,17.597,6.261z"/>
		<path d="M44.492,23.114c-0.096-0.673-0.203-1.34-0.328-2c-0.062-0.325-0.28-0.599-0.583-0.731
			c-0.303-0.131-0.653-0.106-0.933,0.071C39.022,22.741,34.166,24,28.977,24s-10.044-1.259-13.671-3.546
			c-0.28-0.177-0.628-0.204-0.933-0.071c-0.303,0.132-0.522,0.406-0.583,0.731c-0.126,0.667-0.235,1.342-0.331,2.022
			C10.467,24.341,9.642,33.458,9.642,39c0,5.943,0.948,16,4.5,16c1.515,0,2.681-1.785,3.478-5.3c2.901,5.122,6.921,8.3,11.357,8.3
			c4.453,0,8.485-3.203,11.389-8.358C41.164,53.196,42.334,55,43.858,55c3.552,0,4.5-10.057,4.5-16
			C48.358,33.427,47.525,24.236,44.492,23.114z M16.035,47.362c-0.688,4.261-1.651,5.534-1.851,5.644
			C13.297,52.663,11.642,47.55,11.642,39c0-5.556,0.699-9.649,1.432-11.936c-0.057,0.973-0.097,1.95-0.097,2.936
			c0,6.354,1.218,12.217,3.263,16.921C16.142,47.048,16.062,47.192,16.035,47.362z M28.977,56c-7.72,0-14-11.664-14-26
			c0-2.422,0.181-4.809,0.538-7.113C19.278,24.902,23.996,26,28.977,26s9.7-1.098,13.462-3.113c0.357,2.304,0.538,4.69,0.538,7.113
			C42.977,44.336,36.697,56,28.977,56z M43.9,53.006c-0.284-0.109-1.248-1.382-1.936-5.644c-0.03-0.186-0.122-0.34-0.236-0.474
			C43.766,42.19,44.977,36.339,44.977,30c0-1.046-0.044-2.082-0.109-3.113c0.754,2.25,1.49,6.412,1.49,12.113
			C46.358,47.549,44.703,52.662,43.9,53.006z"/>
		<path d="M17.477,15.508c0-2.87,4.938-7.295,11.5-7.295s11.5,4.425,11.5,7.295v1h2v-1c0-4.21-6.022-9.295-13.5-9.295
			s-13.5,5.085-13.5,9.295v1h2C17.477,16.508,17.477,15.508,17.477,15.508z"/>
	</g>
</g>
<g>
</g>
<g>
</g>
<g>
</g>
<g>
</g>
<g>
</g>
<g>
</g>
<g>
</g>
<g>
</g>
<g>
</g>
<g>
</g>
<g>
</g>
<g>
</g>
<g>
</g>
<g>
</g>
<g>
</g>
</svg>
