<?xml version="1.0" encoding="iso-8859-1"?>
<!-- Generator: Adobe Illustrator 19.0.0, SVG Export Plug-In . SVG Version: 6.00 Build 0)  -->
<svg version="1.1" id="Layer_1" xmlns="http://www.w3.org/2000/svg" xmlns:xlink="http://www.w3.org/1999/xlink" x="0px" y="0px"
	 viewBox="0 0 370 370" style="enable-background:new 0 0 370 370;" xml:space="preserve">
<g id="XMLID_732_">
	<polygon id="XMLID_70_" style="fill:#78B9EB;" points="15,320 15,0 215,0 275,60 275,320 	"/>
	<polygon id="XMLID_733_" style="fill:#5A8BB0;" points="275,173.75 15,320 275,320 	"/>
	<rect id="XMLID_734_" x="75" y="120" style="fill:#DEDDE0;" width="140" height="20"/>
	<rect id="XMLID_735_" x="75" y="160" style="fill:#DEDDE0;" width="140" height="20"/>
	<rect id="XMLID_736_" x="75" y="80" style="fill:#FFFFFF;" width="70" height="20"/>
	<rect id="XMLID_737_" x="75" y="120" style="fill:#FFFFFF;" width="70" height="20"/>
	<rect id="XMLID_738_" x="75" y="160" style="fill:#FFFFFF;" width="70" height="20"/>
	<g id="XMLID_739_">
		<circle id="XMLID_63_" style="fill:#EEEEEF;" cx="275" cy="290" r="80"/>
		<path id="XMLID_62_" style="fill:#DEDDE0;" d="M275,210c44.183,0,80,35.817,80,80s-35.817,80-80,80"/>
	</g>
	<polygon id="XMLID_740_" style="fill:#1E2E3B;" points="215,0 275,60 215,60 	"/>
	<path id="XMLID_741_" style="fill:#ACABB1;" d="M308.972,321.16l9.999-17.319l7.87,4.543C328.88,302.634,330,296.449,330,290
		s-1.12-12.634-3.159-18.384l-7.869,4.543l-10-17.319l7.854-4.535c-8.03-9.399-19.167-16.054-31.826-18.381V245h-20v-9.076
		c-12.659,2.327-23.796,8.982-31.826,18.381l7.854,4.535l-10,17.32l-7.869-4.543C221.12,277.366,220,283.551,220,290
		s1.12,12.634,3.159,18.383l7.869-4.543l10,17.32l-7.854,4.535c8.03,9.4,19.167,16.055,31.826,18.381V335h19.999v9.076
		c12.659-2.326,23.797-8.982,31.827-18.382L308.972,321.16z"/>
	<path id="XMLID_742_" style="fill:#565659;" d="M326.841,271.616l-7.869,4.543l-10-17.319l7.854-4.535
		c-8.03-9.399-19.167-16.054-31.826-18.381V245h-10v90h9.999v9.076c12.659-2.326,23.797-8.982,31.827-18.382l-7.855-4.535
		l9.999-17.319l7.87,4.543c2.04-5.749,3.16-11.934,3.16-18.383S328.88,277.366,326.841,271.616z"/>
	<circle id="XMLID_743_" style="fill:#EEEEEF;" cx="275" cy="290" r="25"/>
</g>
<g>
</g>
<g>
</g>
<g>
</g>
<g>
</g>
<g>
</g>
<g>
</g>
<g>
</g>
<g>
</g>
<g>
</g>
<g>
</g>
<g>
</g>
<g>
</g>
<g>
</g>
<g>
</g>
<g>
</g>
</svg>
