<svg viewBox="0 0 26 18">
    <path d="M5.109,13.891 C1.618,11.83 0,9 0,9 C0,9 4,2 13,2 C14.305,2 15.504,2.147 16.601,2.399 L15.751,3.249 C14.896,3.091 13.979,3.001 12.999,3.001 C4.999,3.001 1.199,9.001 1.199,9.001 C1.199,9.001 2.714,11.393 5.844,13.156 L5.108,13.892 L5.109,13.891 Z M9.399,15.601 C10.496,15.852 11.696,16 13,16 C22,16 26,9 26,9 C26,9 24.383,6.17 20.891,4.109 L20.155,4.845 C23.285,6.608 24.8,9 24.8,9 C24.8,9 21,15 13,15 C12.02,15 11.103,14.91 10.248,14.752 L9.398,15.602 L9.399,15.601 Z M16.899,8.101 C16.965,8.39 17,8.691 17,9 C17,11.209 15.209,13 13,13 C12.691,13 12.39,12.965 12.101,12.899 L13,12 C13.768,12 14.536,11.707 15.121,11.121 C15.707,10.535 16,9.767 16,9 L16.899,8.101 L16.899,8.101 Z M13.899,5.101 C13.61,5.035 13.309,5 13,5 C10.791,5 9,6.791 9,9 C9,9.309 9.035,9.61 9.101,9.899 L10,9 C10,8.232 10.293,7.464 10.879,6.879 C11.465,6.293 12.233,6 13,6 L13.899,5.101 L13.899,5.101 Z M21,-8.8817842e-16 L4,17 L5,18 L22,1 L21,0 L21,-8.8817842e-16 Z"/>
</svg>