<svg xmlns="http://www.w3.org/2000/svg" width="79" height="45" viewBox="0 0 79 45">
  <g fill="none" fill-rule="evenodd">
    <path fill="#2AB9F7" d="M61.269,10.443 C61.338,10.505 61.386,10.55 61.403,10.566 L61.679,10.831 L66.884,27.129 L74.775,24.609 L69.42,7.84 L61.269,10.443 L61.269,10.443 Z"/>
    <path fill="#000000" d="M64.473,31.049 L78.546,26.554 L71.365,4.07 L58.237,8.261 C55.636,6.712 51.59,5 46.647,5.263 C42.769,5.483 38.938,7.341 36.101,9.683 C34.497,9.246 31.159,8.763 23.945,8.14 L24.898,5.155 L9.085,0.106 L0.932,25.637 L16.745,30.688 L17.602,28.004 C17.786,28.036 17.955,28.071 18.152,28.103 C20.484,28.482 22.178,28.888 22.75,30.683 C23.621,33.42 28.894,36.769 40.95,42.24 C41.758,42.606 42.34,42.869 42.591,42.999 C43.54,43.49 46.392,44.455 49.139,44.455 C50.134,44.455 51.115,44.329 51.987,44.008 C53.244,43.544 54.152,42.705 54.61,41.579 C55.147,40.263 54.332,39.166 53.793,38.441 C53.626,38.215 53.357,37.855 53.283,37.661 C53.565,37.538 54.324,37.512 54.747,37.497 C55.914,37.457 57.368,37.407 58.031,36.128 C58.633,34.964 58.159,33.735 57.779,32.749 C57.716,32.585 57.637,32.38 57.573,32.192 C57.675,32.169 57.778,32.144 57.87,32.124 C59.106,31.841 60.974,31.413 61.915,29.793 C62.067,29.531 62.185,29.252 62.27,28.957 C62.788,28.863 63.274,28.763 63.71,28.665 L64.473,31.049 L64.473,31.049 Z M25.608,29.772 C24.435,26.084 20.803,25.494 18.633,25.141 C18.596,25.135 18.559,25.128 18.522,25.122 L23.009,11.071 C26.997,11.416 31.137,11.857 33.577,12.223 C33.053,12.875 32.606,13.532 32.272,14.176 C31.157,16.324 31.507,17.712 31.997,18.498 C33.167,20.375 34.664,21.573 36.212,21.873 C37.254,22.075 38.279,21.855 39.1,21.255 L39.574,20.902 C43.341,18.073 45.164,17.322 46.063,17.301 C46.116,17.3 46.177,17.291 46.224,17.295 C46.284,17.352 46.354,17.435 46.426,17.523 C47.042,18.28 48.071,20.1 48.791,21.376 C50.952,25.204 52.501,27.781 54.285,28.701 C54.953,29.046 55.783,29.233 56.679,29.322 C55.855,29.532 55.08,29.832 54.698,30.632 C54.175,31.73 54.622,32.891 54.982,33.823 C55.052,34.004 55.147,34.251 55.218,34.469 C55.026,34.482 54.815,34.489 54.645,34.494 C53.375,34.538 51.456,34.603 50.599,36.261 C49.712,37.974 50.801,39.44 51.386,40.227 C51.485,40.359 51.616,40.536 51.706,40.674 C51.581,40.847 51.363,41.036 50.951,41.188 C48.93,41.934 45.093,40.912 43.97,40.331 C43.697,40.189 43.066,39.901 42.19,39.504 C28.478,33.285 25.915,30.737 25.608,29.772 L25.608,29.772 Z M21.128,7.102 L14.8,26.916 L4.702,23.691 L11.03,3.877 L21.128,7.102 L21.128,7.102 Z M55.659,26.037 C54.539,25.459 52.652,22.116 51.403,19.903 C49.398,16.351 48.37,14.632 46.944,14.366 C46.701,14.321 46.452,14.3 46.196,14.3 C43.736,14.3 40.707,16.301 37.771,18.506 L37.33,18.835 C37.236,18.902 37.077,18.987 36.782,18.93 C36.52,18.879 35.584,18.584 34.548,16.923 C34.506,16.818 34.505,16.183 35.26,14.999 C37.214,11.938 41.928,8.536 46.818,8.26 C53.133,7.879 57.91,11.531 59.065,12.502 L63.275,25.686 C60.51,26.311 56.999,26.728 55.659,26.037 L55.659,26.037 Z M66.885,27.128 L61.68,10.83 L61.404,10.565 C61.387,10.549 61.339,10.504 61.27,10.442 L69.421,7.839 L74.776,24.608 L66.885,27.128 L66.885,27.128 Z"/>
    <rect width="20.8" height="10.6" x="2.516" y="10.098" fill="#2AB9F7" transform="rotate(107.71 12.916 15.398)"/>
    <path fill="#FFE101" d="M51.705,40.677 C51.615,40.538 51.484,40.362 51.385,40.23 C50.8,39.443 49.711,37.977 50.598,36.264 C51.455,34.607 53.374,34.541 54.644,34.497 C54.813,34.491 55.024,34.484 55.217,34.472 C55.145,34.253 55.05,34.006 54.981,33.826 C54.622,32.893 54.174,31.732 54.697,30.635 C55.079,29.835 55.854,29.535 56.678,29.325 C55.782,29.235 54.952,29.049 54.284,28.704 C52.501,27.784 50.951,25.207 48.79,21.379 C48.07,20.103 47.041,18.283 46.425,17.526 L46.062,17.304 C45.163,17.325 43.34,18.076 39.573,20.905 L39.099,21.258 C38.278,21.859 37.253,22.078 36.211,21.876 C34.663,21.576 33.166,20.378 31.996,18.501 C31.506,17.715 31.157,16.327 32.271,14.179 C32.605,13.535 33.052,12.878 33.576,12.226 C31.136,11.86 26.996,11.419 23.008,11.074 L18.521,25.125 C20.802,25.497 24.434,26.086 25.607,29.775 C25.914,30.74 28.477,33.288 42.189,39.509 C43.065,39.906 43.695,40.195 43.969,40.336 C45.092,40.915 48.929,41.938 50.95,41.191 C51.362,41.04 51.58,40.85 51.705,40.677 Z"/>
    <path fill="#FFE101" d="M63.275,25.686 L59.065,12.502 C57.91,11.531 53.133,7.879 46.818,8.26 C41.928,8.536 37.214,11.939 35.26,14.999 C34.505,16.183 34.507,16.817 34.548,16.923 C35.584,18.584 36.52,18.879 36.782,18.93 C37.077,18.988 37.236,18.903 37.33,18.835 L37.771,18.506 C40.707,16.301 43.736,14.3 46.196,14.3 C46.452,14.3 46.701,14.321 46.944,14.366 C48.371,14.632 49.398,16.351 51.403,19.903 C52.652,22.116 54.539,25.459 55.659,26.037 C56.999,26.728 60.51,26.311 63.275,25.686 L63.275,25.686 Z"/>
  </g>
</svg>
