<svg version="1.1" id="Layer_1" xmlns="http://www.w3.org/2000/svg" xmlns:xlink="http://www.w3.org/1999/xlink" x="0px" y="0px" viewBox="0 0 48 48" enable-background="new 0 0 48 48" xml:space="preserve">
<path fill="#2E7D32" d="M22.3,20.9c0.1,0.2,0.2,0.4,0.4,0.6c0.2,0.2,0.5,0.4,0.8,0.5c0.3,0.2,0.7,0.4,1.2,0.5
    c0.8,0.3,1.5,0.6,2.1,0.9c0.6,0.3,1.2,0.7,1.7,1.1c0.5,0.4,0.8,0.9,1.1,1.4c0.3,0.5,0.4,1.2,0.4,1.9c0,0.7-0.1,1.3-0.3,1.8
    c-0.2,0.5-0.6,1-1,1.4c-0.4,0.4-0.9,0.7-1.5,0.9c-0.6,0.2-1.3,0.4-2,0.5V35h-1.9v-2.3c-0.7-0.1-1.3-0.2-2-0.5
    c-0.6-0.2-1.2-0.6-1.7-1c-0.5-0.4-0.9-1-1.2-1.6c-0.3-0.7-0.4-1.5-0.4-2.4h3.5c0,0.5,0.1,1,0.2,1.4c0.1,0.4,0.3,0.7,0.6,0.9
    c0.3,0.2,0.5,0.4,0.9,0.5c0.3,0.1,0.6,0.1,1,0.1c0.4,0,0.7,0,1-0.1c0.3-0.1,0.5-0.2,0.7-0.4c0.2-0.2,0.3-0.4,0.4-0.6
    c0.1-0.2,0.1-0.5,0.1-0.8c0-0.3,0-0.6-0.1-0.9c-0.1-0.2-0.2-0.5-0.4-0.7c-0.2-0.2-0.5-0.4-0.8-0.6c-0.3-0.2-0.7-0.3-1.2-0.5
    c-0.8-0.3-1.5-0.6-2.2-0.9c-0.6-0.3-1.2-0.7-1.7-1.1c-0.5-0.4-0.8-0.9-1.1-1.4c-0.3-0.5-0.4-1.2-0.4-2c0-0.7,0.1-1.3,0.3-1.8
    c0.2-0.5,0.6-1,1-1.4c0.4-0.4,0.9-0.7,1.5-1c0.6-0.3,1.2-0.4,2-0.5V13h1.9v2.5c0.7,0.1,1.3,0.3,1.9,0.6c0.6,0.3,1,0.7,1.4,1.1
    c0.4,0.5,0.7,1,0.9,1.6c0.2,0.6,0.3,1.3,0.3,2.1h-3.5c0-0.9-0.2-1.6-0.6-2.1c-0.4-0.5-0.9-0.7-1.6-0.7c-0.4,0-0.7,0.1-0.9,0.2
    c-0.3,0.1-0.5,0.2-0.7,0.4c-0.2,0.2-0.3,0.4-0.4,0.6s-0.1,0.5-0.1,0.8C22.2,20.4,22.2,20.7,22.3,20.9"></path>
<path fill="#8BC34A" d="M43,22v2c0,10.5-8.5,19-19,19h-2v-4h2c8.3,0,15-6.7,15-15c0-8.3-6.7-15-15-15c-3.1,0-6,1-8.4,2.6L18,14L7,17
    l3-11l2.7,2.7C15.9,6.4,19.8,5,24,5c9.8,0,17.9,7.5,18.9,17H43z M15.5,41c0.9,0.4,1.8,0.8,2.8,1.1l1.2-3.8c-0.8-0.2-1.5-0.5-2.2-0.9
    L15.5,41z M12.6,33.7l-3.1,2.6c0.7,0.8,1.4,1.5,2.1,2.1l2.6-3C13.6,34.9,13.1,34.3,12.6,33.7z M9.7,28.6l-3.8,1.2
    c0.3,1,0.7,1.9,1.2,2.8l3.6-1.8C10.3,30.1,10,29.4,9.7,28.6z M9,24c0-0.3,0-0.7,0-1l-4-0.3C5,23.2,5,23.6,5,24c0,0.5,0,1.1,0.1,1.6
    l4-0.3C9,24.8,9,24.4,9,24z"></path>
</svg>