<svg version="1.1" id="Layer_1" xmlns="http://www.w3.org/2000/svg" xmlns:xlink="http://www.w3.org/1999/xlink" x="0px" y="0px" viewBox="0 0 40 40" style="enable-background:new 0 0 40 40;" xml:space="preserve">
<g>
	<path style="fill:#8BB7F0;" d="M26.636,16.786l3.894-3.894l-0.25-0.345C27.892,9.252,24.049,7.286,20,7.286
		c-5.25,0-9.969,3.257-11.853,8.143H2.08C4.146,7.321,11.582,1.5,20,1.5c5.564,0,10.783,2.487,14.319,6.823l0.35,0.429L38.5,4.921
		v11.864H26.636z"></path>
	<g>
		<path style="fill:#4E7AB5;" d="M20,2c5.414,0,10.492,2.42,13.932,6.639l0.699,0.858l0.783-0.783L38,6.128v10.157H27.843
			l2.738-2.738l0.603-0.603l-0.5-0.691C28.203,8.83,24.209,6.786,20,6.786c-5.341,0-10.153,3.244-12.191,8.143H2.736
			C4.959,7.367,12.027,2,20,2 M20,1C10.906,1,3.314,7.394,1.448,15.929h7.047C10.174,11.188,14.684,7.786,20,7.786
			c4.067,0,7.658,1.995,9.874,5.054l-4.446,4.446H39V3.714l-4.293,4.293C31.226,3.738,25.94,1,20,1L20,1z"></path>
	</g>
</g>
<g>
	<path style="fill:#8BB7F0;" d="M20,38.5c-5.564,0-10.783-2.487-14.319-6.823l-0.35-0.429L1.5,35.079V23.214h11.864l-3.894,3.894
		l0.25,0.345c2.388,3.294,6.23,5.261,10.279,5.261c5.25,0,9.969-3.257,11.853-8.143h6.067C35.854,32.679,28.418,38.5,20,38.5z"></path>
	<g>
		<path style="fill:#4E7AB5;" d="M12.157,23.714l-2.738,2.738l-0.603,0.603l0.5,0.691c2.481,3.424,6.475,5.468,10.684,5.468
			c5.341,0,10.153-3.244,12.191-8.143h5.073C35.041,32.633,27.973,38,20,38c-5.414,0-10.492-2.42-13.932-6.639l-0.699-0.858
			l-0.783,0.783L2,33.872V23.714H12.157 M14.571,22.714H1v13.571l4.293-4.293C8.774,36.262,14.06,39,20,39
			c9.094,0,16.686-6.394,18.552-14.929h-7.047c-1.679,4.741-6.188,8.143-11.504,8.143c-4.067,0-7.658-1.995-9.874-5.054
			L14.571,22.714L14.571,22.714z"></path>
	</g>
</g>
</svg>